<?xml version="1.0" encoding="UTF-8"?>
<svg width="391px" height="391px" viewBox="0 0 391 391" version="1.1" xmlns="http://www.w3.org/2000/svg" xmlns:xlink="http://www.w3.org/1999/xlink">
    <!-- Generator: Sketch 51.3 (57544) - http://www.bohemiancoding.com/sketch -->
    <title>contentful-logo</title>
    <desc>Created with Sketch.</desc>
    <defs></defs>
    <g id="Page-1" stroke="none" stroke-width="1" fill="none" fill-rule="evenodd">
        <g id="contentful-logo" fill-rule="nonzero">
            <circle id="Oval-2" fill="#1A2737" cx="195.5" cy="195.5" r="195.5"></circle>
            <g id="Group" transform="translate(83.000000, 75.000000)">
                <path d="M71.3171707,163.95597 C58.8182851,152.192313 51.4659995,136.017284 51.4659995,117.636571 C51.4659995,99.255856 58.8182851,83.0808275 70.5819422,71.3171707 C80.8751421,61.0239709 80.8751421,44.8489424 70.5819422,34.5557425 C60.2887423,24.2625426 44.1137138,24.2625426 33.820514,34.5557425 C13.2341142,55.8773709 0,85.2865138 0,117.636571 C0,149.986627 13.2341142,179.39577 34.5557425,200.717398 C44.8489424,211.010598 61.0239709,211.010598 71.3171707,200.717398 C80.8751421,190.424199 80.8751421,174.24917 71.3171707,163.95597 Z" id="Shape" fill="#FAE501"></path>
                <path d="M71.3171707,71.3171707 C83.0808275,58.8182851 99.255856,51.4659995 117.636571,51.4659995 C136.017284,51.4659995 152.192313,58.8182851 163.95597,70.5819422 C174.24917,80.8751421 190.424199,80.8751421 200.717398,70.5819422 C211.010598,60.2887423 211.010598,44.1137138 200.717398,33.820514 C179.39577,13.2341142 149.986627,0 117.636571,0 C85.2865138,0 55.8773709,13.2341142 34.5557425,34.5557425 C24.2625426,44.8489424 24.2625426,61.0239709 34.5557425,71.3171707 C44.8489424,80.8751421 61.0239709,80.8751421 71.3171707,71.3171707 Z" id="Shape" fill="#4FB5E1"></path>
                <path d="M163.95597,163.95597 C152.192313,176.454856 136.017284,183.807141 117.636571,183.807141 C99.255856,183.807141 83.0808275,176.454856 71.3171707,164.691199 C61.0239709,154.397998 44.8489424,154.397998 34.5557425,164.691199 C24.2625426,174.984398 24.2625426,191.159427 34.5557425,201.452626 C55.8773709,222.039026 85.2865138,235.27314 117.636571,235.27314 C149.986627,235.27314 179.39577,222.039026 200.717398,200.717398 C211.010598,190.424199 211.010598,174.24917 200.717398,163.95597 C190.424199,154.397998 174.24917,154.397998 163.95597,163.95597 Z" id="Shape" fill="#F05751"></path>
                <circle id="Oval" fill="#0681B6" cx="52.9364567" cy="52.9364567" r="25.7329998"></circle>
                <circle id="Oval" fill="#CD4739" cx="52.9364567" cy="182.336684" r="25.7329998"></circle>
            </g>
        </g>
    </g>
</svg>