<?xml version="1.0" encoding="UTF-8"?>
<svg width="1344px" height="1344px" viewBox="0 0 1344 1344" version="1.1" xmlns="http://www.w3.org/2000/svg" xmlns:xlink="http://www.w3.org/1999/xlink">
    <!-- Generator: Sketch 51.3 (57544) - http://www.bohemiancoding.com/sketch -->
    <title>Layer_x0020_1</title>
    <desc>Created with Sketch.</desc>
    <defs></defs>
    <g id="Page-1" stroke="none" stroke-width="1" fill="none" fill-rule="evenodd">
        <g id="github-logo" transform="translate(-352.000000, -352.000000)">
            <g id="Layer_x0020_1" transform="translate(351.000000, 351.000000)">
                <circle id="Oval" fill="#424242" cx="673" cy="673" r="672.001"></circle>
                <path d="M900.558,1305.457 C829.4875,1331.0326 752.879,1345.0015 673,1345.0015 C621.4448,1345.0015 571.253,1339.17748 523.028,1328.1838 C523.019732,1315.8838 522.908709,1304.2098 522.762252,1288.729 C522.590992,1270.7172 522.377212,1248.3364 522.200047,1222.6782 C329.315047,1257.6955 284.284047,1122.2302 282.436047,1116.4012 C251.743947,1038.8216 209.535947,1019.0429 209.413147,1018.9838 L207.829287,1018.09797 C110.612687,951.659773 219.179687,953.036873 219.486787,953.038073 L220.233244,953.038073 C296.269144,958.389653 336.765244,1028.49637 338.972244,1032.41407 C362.093544,1072.00937 390.530944,1091.53777 418.786444,1099.60467 C459.771944,1111.30467 501.103444,1099.46885 525.516444,1089.37627 C528.903844,1069.35897 534.482194,1052.04987 541.443644,1037.38767 C546.134984,1027.5101 551.470044,1018.79827 557.207844,1011.23447 C483.549544,1000.78287 409.732844,979.442673 352.068844,930.900573 C288.088444,877.039873 244.723844,790.522573 244.723844,649.826573 L244.769907,649.826573 C244.775813,610.482873 251.586057,574.641073 264.013607,542.255573 C276.330107,510.155573 294.181307,481.396873 316.408507,455.935773 C312.156537,443.851873 306.251007,422.790473 304.386007,394.909373 C302.106477,360.809773 305.825767,316.318773 326.001407,265.308373 L326.466762,264.377664 C326.479754,264.352861 335.238812,256.893014 347.619162,256.267024 C355.786492,255.853638 368.113662,256.282378 384.750662,259.646164 C417.149462,266.196564 466.779462,284.163464 535.293662,329.905264 C562.363362,322.628484 590.302362,317.098564 618.641762,313.285964 C649.304362,309.162734 680.526862,307.047374 711.707962,306.909184 L711.801269,306.909184 C742.946969,307.047373 774.133969,309.163914 804.777669,313.284784 C833.130069,317.098564 861.095069,322.633214 888.214369,329.909984 C1025.94237,237.935084 1089.41137,258.220584 1089.59937,258.274884 L1095.14819,259.920164 L1097.28481,265.308354 C1117.53841,316.386354 1121.29431,360.834854 1119.03481,394.862354 C1117.18284,422.737554 1111.29976,443.789554 1107.06551,455.884054 C1129.27971,481.281354 1147.07541,510.004554 1159.36481,542.091554 C1171.81841,574.607354 1178.60971,610.510554 1178.60971,649.827554 C1178.60971,790.913554 1135.18171,877.390554 1071.07471,931.058554 C1013.36841,979.370354 939.462709,1000.43305 865.647709,1010.70625 C874.279209,1021.99525 882.037909,1035.88505 888.096909,1052.42395 C896.250069,1074.68655 901.361909,1101.80585 901.361909,1133.86335 C901.361909,1191.06305 900.939074,1250.57635 900.660334,1289.98135 C900.620177,1295.54671 900.584744,1300.56875 900.556397,1305.45735 L900.558,1305.457 Z M305.204,1057.306 C310.28393,1057.82687 314.01975,1061.96073 313.55086,1066.53868 C313.080781,1071.11546 308.58314,1074.40483 303.50436,1073.88396 C298.42443,1073.36309 294.68861,1069.22923 295.1575,1064.65246 C295.627579,1060.0745 300.12522,1056.78513 305.204,1057.306 Z M324.3568,1106.6501 C324.825698,1102.07214 329.32334,1098.78277 334.4033,1099.30364 C339.48204,1099.82451 343.21905,1103.95837 342.74898,1108.53632 C342.280082,1113.11428 337.78244,1116.40365 332.70248,1115.88278 C327.62374,1115.36191 323.88791,1111.22805 324.3568,1106.6501 Z M257.9965,993.0411 C263.07643,993.561967 266.81225,997.69583 266.34336,1002.2726 C265.873281,1006.85056 261.37564,1010.13993 256.29686,1009.61906 C251.21693,1009.09819 247.48111,1004.96433 247.95,1000.38756 C248.420079,995.8096 252.91772,992.52023 257.9965,993.0411 Z M282.5457,1020.4273 C287.62563,1020.94817 291.36145,1025.08203 290.89256,1029.65998 C290.422481,1034.23676 285.92484,1037.52731 280.84606,1037.00644 C275.76732,1036.48557 272.03031,1032.35171 272.50038,1027.77376 C272.969278,1023.1958 277.46692,1019.90643 282.54568,1020.4273 L282.5457,1020.4273 Z M373.7576,1128.2763 C378.83753,1128.79717 382.57335,1132.93103 382.10446,1137.50898 C381.634381,1142.08694 377.13674,1145.37631 372.05796,1144.85544 C366.97803,1144.33457 363.24221,1140.20071 363.7111,1135.62276 C364.181179,1131.04598 368.67882,1127.75543 373.7576,1128.2763 Z M430.375,1143.7027 C435.45374,1144.22357 439.19075,1148.35743 438.72186,1152.9342 C438.251781,1157.51216 433.75414,1160.80153 428.67536,1160.28066 C423.59543,1159.75979 419.85961,1155.62593 420.3285,1151.04798 C420.798579,1146.4712 425.29622,1143.18183 430.375,1143.7027 Z M482.6991,1139.44837 C487.77784,1139.96924 491.51367,1144.1031 491.04478,1148.68105 C490.575882,1153.25783 486.07824,1156.5472 480.99828,1156.02633 C475.91954,1155.50546 472.18253,1151.3716 472.6526,1146.79483 C473.121498,1142.21687 477.61914,1138.9275 482.6991,1139.44837 Z" id="Shape" fill="#FFFFFE"></path>
            </g>
        </g>
    </g>
</svg>