<svg xmlns="http://www.w3.org/2000/svg" width="46" height="47" viewBox="0 0 46 47">
  <g id="Group_190" data-name="Group 190" transform="translate(3015 -5413)">
    <ellipse id="Ellipse_152" data-name="Ellipse 152" cx="23" cy="23.5" rx="23" ry="23.5" transform="translate(-3015 5413)" fill="#fe7a59"/>
    <g id="HubSpot_Logo" transform="translate(-3071.758 5424.349)">
      <path id="Path_3822" data-name="Path 3822" d="M86.363,8.2V5.236a2.286,2.286,0,0,0,1.318-2.06V3.108A2.286,2.286,0,0,0,85.4.823h-.068a2.286,2.286,0,0,0-2.286,2.286v.068a2.286,2.286,0,0,0,1.318,2.06V8.2a6.472,6.472,0,0,0-3.077,1.355l-8.14-6.34a2.548,2.548,0,0,0,.092-.641,2.575,2.575,0,1,0-2.578,2.57A2.547,2.547,0,0,0,71.924,4.8l8.015,6.237a6.492,6.492,0,0,0,.1,7.313L77.6,20.792a2.094,2.094,0,0,0-.609-.1,2.115,2.115,0,1,0,2.116,2.116,2.087,2.087,0,0,0-.1-.609l2.412-2.413A6.5,6.5,0,1,0,86.363,8.2m-1,9.762a3.337,3.337,0,1,1,3.22-3.338,3.337,3.337,0,0,1-3.22,3.338" fill="#fff"/>
    </g>
  </g>
</svg>
